<?xml version="1.0" encoding="utf-8"?>
<svg width="39px" height="39px" viewBox="0 0 39 39" version="1.1" xmlns:xlink="http://www.w3.org/1999/xlink" xmlns="http://www.w3.org/2000/svg">
  <g id="Group-25">
    <path d="M0 0L39 0L39 39L0 39L0 0Z" id="Rectangle" fill="#FFFFFF" fill-opacity="0" fill-rule="evenodd" stroke="none" />
    <g id="Group-3" transform="translate(4 6)">
      <path d="M4.27641 12.857C2.64105 12.857 1.31061 14.1979 1.31061 15.8462L1.31061 19.2449C1.31061 20.8932 2.64105 22.2341 4.27641 22.2341L7.49799 22.2341L7.49799 12.857L4.27641 12.857ZM23.5021 22.2341L26.7237 22.2341C28.3591 22.2341 29.6895 20.8932 29.6895 19.2449L29.6895 15.8462C29.6895 14.1979 28.3591 12.857 26.7237 12.857L23.5021 12.857L23.5021 22.2341ZM7.5946 28C6.06392 28 4.81867 26.7449 4.81867 25.2022L4.81867 23.5551L4.27641 23.5551C1.91842 23.5551 0 21.6215 0 19.2449L0 15.8462C0 13.7669 1.47743 11.9873 3.5129 11.6147L3.83032 11.5566L3.84517 11.2318C3.98303 8.20612 5.25693 5.38059 7.43219 3.27576C9.61522 1.16335 12.4804 0 15.5 0C18.634 0 21.5705 1.22672 23.7685 3.45416C25.8211 5.52205 27.0239 8.28383 27.156 11.2316L27.1706 11.5566L27.4882 11.6148C29.5231 11.9878 31 13.7674 31 15.8462L31 19.2449C31 21.6215 29.0816 23.5551 26.7237 23.5551L22.8468 23.5551C22.4855 23.5551 22.1915 23.2588 22.1915 22.8946L22.1915 12.1966C22.1915 11.8324 22.4855 11.536 22.8468 11.536L25.8673 11.536L25.8402 11.1021C25.6809 8.56011 24.6157 6.17517 22.8406 4.38663C20.8896 2.40998 18.2824 1.3209 15.5 1.3209C10.0519 1.3209 5.5106 5.61711 5.16131 11.1017L5.1336 11.5361L8.15326 11.5361C8.51461 11.5361 8.80854 11.8324 8.80854 12.1966L8.80854 22.8946C8.80854 23.2588 8.51461 23.5551 8.15326 23.5551L6.12922 23.5551L6.12922 25.2022C6.12922 26.0165 6.78661 26.679 7.5946 26.679L14.9227 26.679C15.2841 26.679 15.5781 26.9754 15.5781 27.3396C15.5781 27.7037 15.2841 28 14.9227 28L7.5946 28Z" id="Fill-1" fill="#009A44" fill-rule="evenodd" stroke="none" />
    </g>
  </g>
</svg>