<?xml version="1.0" encoding="utf-8"?>
<svg width="182px" height="31px" viewBox="0 0 182 31" version="1.1" xmlns:xlink="http://www.w3.org/1999/xlink" xmlns="http://www.w3.org/2000/svg">
  <defs>
    <linearGradient x1="0.48428887" y1="1.0148883" x2="0.51598674" y2="-0.014888338" id="gradient_1">
      <stop offset="0" stop-color="#009A44" />
      <stop offset="1" stop-color="#56C271" />
    </linearGradient>
    <linearGradient x1="-0.0007526911" y1="0.5000954" x2="1" y2="0.5000954" id="gradient_2">
      <stop offset="0" stop-color="#C5C5C5" />
      <stop offset="0.2" stop-color="#DADADA" />
      <stop offset="0.47" stop-color="#EEEEEE" />
      <stop offset="0.74" stop-color="#FBFBFB" />
      <stop offset="1" stop-color="#FFFFFF" />
    </linearGradient>
    <linearGradient x1="-0.00091793993" y1="0.50000405" x2="0.9996366" y2="0.50000405" id="gradient_3">
      <stop offset="0" stop-color="#FFFFFF" />
      <stop offset="0.26" stop-color="#FBFBFB" />
      <stop offset="0.53" stop-color="#EEEEEE" />
      <stop offset="0.8" stop-color="#DADADA" />
      <stop offset="1" stop-color="#C5C5C5" />
    </linearGradient>
  </defs>
  <g id="Logo-nuevo" transform="translate(0.9000244 0.9000244)">
    <g id="Group-4">
      <path d="M13.1463 2.77347e-15L28.1884 2.77347e-15L28.1884 15.1214C28.1798 22.4103 22.2965 28.3146 15.0421 28.3146L0 28.3146L0 13.2088C2.20827e-14 5.91378 5.88579 1.66408e-14 13.1463 2.77347e-15Z" id="Path" fill="url(#gradient_1)" fill-rule="evenodd" stroke="#FFFFFF" stroke-width="1.8" />
      <path d="M17.0105 4.65422C15.9616 2.82747 13.9027 1.80481 11.4242 1.80481C7.55414 1.93496 4.0813 4.22805 2.42687 7.74564L1.33135 7.74564C0.859583 7.74386 0.423706 7.49228 0.184509 7.08371C-0.0546881 6.67514 -0.0617613 6.17013 0.165899 5.75496L0.165899 5.75496C4.09735 -0.701117 14.3611 -2.60593 17.0105 4.65422Z" transform="translate(4.332742 5.0806303)" id="Path" fill="url(#gradient_2)" fill-rule="evenodd" stroke="none" />
      <path d="M16.798 5.81334L19.9059 5.81334C18.5269 2.20656 15.0238 -0.125304 11.1806 0.00521062C6.49553 0.101873 2.22445 2.72323 0 6.86723C3.88484 0.457995 14.1563 -1.4234 16.798 5.81334Z" transform="translate(4.545259 3.913712)" id="Path" fill="#FFFFFF" fill-rule="evenodd" stroke="none" />
      <path d="M3.10787 0.928988L0 0.928988C1.21984 4.44197 4.6618 6.72931 8.7098 6.72931C13.3531 6.64561 17.5996 4.0808 19.8515 0C16.5572 5.50367 6.27013 8.44676 3.10787 0.928988Z" transform="translate(3.7682915 17.650764)" id="Path" fill="#FFFFFF" fill-rule="evenodd" stroke="none" />
      <path d="M20.3172 2.79477C19.84 2.1483 19.074 1.78255 18.2738 1.81894L1.95746 1.81894C1.52083 1.81217 1.11434 1.59391 0.866092 1.23294C0.617846 0.871971 0.558422 0.41275 0.706546 0C0.495623 0.422509 0.311377 0.857938 0.154899 1.30371C-0.125622 2.04855 -0.0208789 2.88463 0.434607 3.5364C0.907821 4.19219 1.67211 4.57177 2.47803 4.55126L18.7943 4.55126C19.2305 4.5899 19.6223 4.83493 19.8494 5.21108C20.0765 5.58724 20.1117 6.04957 19.9443 6.45607C20.1991 5.97263 20.4198 5.47177 20.6047 4.9572C20.8692 4.23282 20.7617 3.42398 20.3172 2.79477L20.3172 2.79477Z" transform="translate(3.7299378 11.007333)" id="Path" fill="#FFFFFF" fill-rule="evenodd" stroke="none" />
      <path d="M15.6015 0L14.5526 0C12.9027 3.51333 9.43513 5.80389 5.57086 5.93303C3.32657 6.04552 1.19659 4.93219 0 3.02116C3.1778 10.5467 13.5037 7.58023 16.7514 2.06875L16.7514 2.06875C16.987 1.64721 16.9876 1.13296 16.753 0.71088C16.5183 0.288803 16.0823 0.0195771 15.6015 0L15.6015 0Z" transform="translate(6.876161 15.558592)" id="Path" fill="url(#gradient_3)" fill-rule="evenodd" stroke="none" />
    </g>
    <path d="M52.163 15.9411C52.163 16.1481 51.9961 16.3158 51.7901 16.3158L50.5392 16.3158C50.3332 16.3158 50.1662 16.1481 50.1662 15.9411L50.1662 3.8955C50.1662 3.79612 50.2055 3.70081 50.2755 3.63054C50.3454 3.56026 50.4403 3.52079 50.5392 3.52079L51.759 3.52079C51.8579 3.52079 51.9528 3.56026 52.0227 3.63054C52.0927 3.70081 52.132 3.79612 52.132 3.8955L52.163 15.9411ZM47.812 3.76279L46.7165 3.76279C46.4934 3.72571 46.2724 3.83989 46.1726 4.04383L42.3888 13.2244L38.605 4.06725C38.5041 3.85831 38.2829 3.73621 38.0533 3.76279L36.9422 3.76279C36.8259 3.76217 36.7163 3.81725 36.647 3.91112C36.5219 4.06196 36.4947 4.27175 36.5771 4.44977L41.3088 15.8787C41.3957 16.1142 41.6049 16.2824 41.8527 16.3158L42.9171 16.3158C43.1706 16.2744 43.3818 16.098 43.4688 15.8552L48.2083 4.42635C48.2928 4.24623 48.2589 4.03249 48.1228 3.8877C48.0486 3.79136 47.9332 3.73628 47.812 3.73937L47.812 3.76279ZM35.0542 4.66055L34.5647 5.55831C34.5405 5.60236 34.5089 5.64196 34.4715 5.67541C34.2831 5.84986 34.005 5.88439 33.78 5.76128C33.6896 5.70194 33.5932 5.65223 33.4925 5.61296C32.4322 5.16293 31.2181 5.27651 30.2587 5.91546C29.2993 6.55442 28.7224 7.63378 28.7219 8.79025L28.7219 15.9411C28.724 16.0418 28.6857 16.1392 28.6155 16.2111C28.5453 16.2831 28.4493 16.3237 28.349 16.3236L27.1292 16.3236C26.9189 16.3236 26.7484 16.1524 26.7484 15.9411L26.7484 4.11409C26.7527 3.90588 26.9219 3.73933 27.1292 3.73937L27.4089 3.73937C28.0454 3.70723 28.6043 4.16113 28.7064 4.79326C29.6195 3.8702 30.8609 3.35051 32.1561 3.34904L32.2882 3.34904C32.9692 3.34757 33.6424 3.49404 34.2617 3.7784C34.3705 3.82524 34.5958 3.94234 34.9144 4.12189C35.0923 4.22711 35.1544 4.4557 35.0542 4.63713L35.0542 4.66055ZM5.78586 8.68877L5.36629 8.61851C4.03768 8.38431 2.38274 8.08766 2.34389 6.94008C2.33102 6.60575 2.46109 6.28186 2.7013 6.05013C3.44826 5.46819 4.3856 5.18956 5.32745 5.26947L5.40514 5.26947C6.40016 5.20915 7.38903 5.46301 8.2333 5.99548C8.29546 6.03452 8.44308 6.15162 8.63733 6.30775C8.87427 6.48461 9.20418 6.4614 9.41429 6.2531L9.90378 5.72225C10.0346 5.58536 10.0924 5.39385 10.0592 5.20701C10.0273 5.06679 9.95096 4.94076 9.84163 4.84791C9.57746 4.62152 9.38322 4.47319 9.27444 4.39513C8.11877 3.64563 6.7646 3.26466 5.3896 3.3022L5.28083 3.3022C3.81788 3.22196 2.3809 3.71443 1.27168 4.67616C0.649799 5.29171 0.314246 6.14166 0.347086 7.01815C0.347086 9.77389 3.0587 10.2267 5.22644 10.5936C7.55734 10.9683 8.66841 11.3742 8.63733 12.4516C8.57517 14.0753 6.39189 14.2471 5.45953 14.2471C4.55236 14.2552 3.65759 14.0351 2.85669 13.6069C2.38925 13.3401 1.97766 12.9849 1.64462 12.5609C1.53703 12.4156 1.36639 12.3313 1.18621 12.3345C1.04069 12.3345 0.900033 12.3871 0.789957 12.4828L0.183922 13.0292C-0.0314974 13.2348 -0.0614424 13.5691 0.113995 13.8099C0.535115 14.3327 1.03288 14.788 1.59023 15.1605C2.75936 15.8743 4.10732 16.2373 5.47507 16.2065C10.2146 16.2065 10.6574 13.3884 10.6808 12.5218C10.7973 9.53188 7.80597 9.02445 5.78586 8.68877ZM124.662 14.2861C126.017 13.2904 126.914 11.7862 127.148 10.1158C127.382 8.44541 126.934 6.75087 125.905 5.41779L126.814 4.35609C126.911 4.21814 126.911 4.03345 126.814 3.8955C126.436 3.35364 125.71 3.18824 125.136 3.51298C125.004 3.58931 124.886 3.6869 124.786 3.80182L124.475 4.17654C123.507 3.58776 122.399 3.26974 121.267 3.25536C117.739 3.25536 115.377 5.71445 115.377 9.38356C115.299 10.9905 115.889 12.5579 117.006 13.7109C118.122 14.864 119.666 15.4993 121.267 15.4649C123.092 15.4649 125.221 16.2456 125.221 18.5173C125.221 21.3745 122.199 21.6399 121.274 21.6399C119.557 21.6399 117.638 20.9374 117.389 18.9779C117.389 18.9779 117.389 18.9779 117.389 18.6812C117.385 18.476 117.221 18.3107 117.017 18.3065L115.804 18.3065C115.602 18.3108 115.439 18.4773 115.439 18.6812L115.439 18.7827C115.433 18.8997 115.433 19.017 115.439 19.134C115.711 21.8898 118.011 23.6619 121.313 23.6619C124.973 23.6619 127.249 21.7024 127.249 18.5641C127.318 16.7439 126.296 15.0592 124.654 14.2861L124.662 14.2861ZM121.329 13.4274C120.268 13.4462 119.247 13.0214 118.511 12.2546C117.774 11.4878 117.388 10.4478 117.444 9.38356C117.444 7.40848 118.454 5.29289 121.329 5.29289C123.66 5.29289 125.214 6.90105 125.214 9.38356C125.215 11.5661 123.492 13.3558 121.321 13.4274L121.329 13.4274ZM140.97 3.73937L140.45 3.73937C140.098 3.73096 139.758 3.86541 139.507 4.11229C139.255 4.35916 139.113 4.69757 139.113 5.05088L139.113 5.05088C137.99 3.91815 136.455 3.29505 134.863 3.32562C133.171 3.30165 131.543 3.9718 130.354 5.18135C129.165 6.39089 128.518 8.03527 128.562 9.73485C128.503 11.441 129.141 13.0973 130.328 14.3184C131.516 15.5395 133.149 16.219 134.848 16.1987C136.463 16.2303 138.014 15.5686 139.113 14.3798L139.113 15.9411C139.113 16.1481 139.28 16.3158 139.486 16.3158L140.932 16.3158C141.136 16.3117 141.3 16.1463 141.305 15.9411L141.305 4.11409C141.302 3.92017 141.155 3.75914 140.963 3.73937L140.97 3.73937ZM134.964 14.1846C133.794 14.2076 132.667 13.7419 131.851 12.8985C131.035 12.0551 130.604 10.9096 130.66 9.73485C130.66 7.31611 132.612 5.35534 135.019 5.35534C137.426 5.35534 139.378 7.31611 139.378 9.73485C139.436 10.9306 138.989 12.0956 138.147 12.9429C137.306 13.7901 136.147 14.2411 134.957 14.1846L134.964 14.1846ZM90.2344 14.1846C90.1459 13.9634 89.9423 13.81 89.7061 13.7865C89.6151 13.7851 89.5249 13.8037 89.4419 13.8411L89.0534 14.0051C88.721 14.1348 88.3688 14.2061 88.0123 14.2159C86.5905 14.2159 86.3496 13.4898 86.3496 11.9675L86.3496 5.48805L89.9236 5.48805C90.1279 5.48391 90.2925 5.31854 90.2966 5.11334L90.2966 4.09847C90.2925 3.89327 90.1279 3.7279 89.9236 3.72376L86.3496 3.72376L86.3496 0.374718C86.3496 0.167767 86.1826 0 85.9767 0L85.5493 0C84.9044 -1.421e-05 84.3804 0.523011 84.3761 1.17099L84.3761 3.73937L82.1229 3.73937C81.9187 3.74352 81.7541 3.90888 81.75 4.11409L81.75 5.12895C81.7541 5.33416 81.9187 5.49952 82.1229 5.50367L84.3761 5.50367L84.3761 11.9832C84.3761 14.8013 85.5649 16.1753 88.0278 16.1753C88.573 16.1672 89.1124 16.0615 89.6206 15.863C89.7527 15.8162 90.0091 15.6991 90.3976 15.5196C90.5832 15.4344 90.6662 15.2153 90.5841 15.0277L90.2344 14.1846ZM101.345 4.53565L100.817 5.48805C100.706 5.68775 100.492 5.80615 100.265 5.79251C100.165 5.79331 100.066 5.76917 99.9776 5.72225C99.8851 5.66164 99.7861 5.61187 99.6824 5.57393C98.6167 5.1244 97.3983 5.23699 96.4321 5.87428C95.4659 6.51156 94.8785 7.59002 94.8652 8.75122L94.8652 15.9411C94.8652 16.1494 94.6994 16.3194 94.4922 16.3236L93.2724 16.3236C93.0652 16.3194 92.8994 16.1494 92.8994 15.9411L92.8994 4.11409C92.9036 3.90888 93.0681 3.74352 93.2724 3.73937L93.622 3.73937C94.2586 3.70723 94.8174 4.16113 94.9195 4.79326C95.8326 3.8702 97.074 3.35051 98.3693 3.34904L98.5014 3.34904C99.1823 3.34757 99.8555 3.49404 100.475 3.7784C100.728 3.89685 100.975 4.02978 101.213 4.17654C101.35 4.2462 101.405 4.41322 101.337 4.55126L101.345 4.53565ZM80.6544 8.82929L80.6544 15.9411C80.6544 16.0405 80.6151 16.1358 80.5452 16.2061C80.4753 16.2764 80.3804 16.3158 80.2815 16.3158L79.0539 16.3158C78.8496 16.3117 78.6851 16.1463 78.6809 15.9411L78.6809 8.91516C78.7291 7.93319 78.3754 6.97416 77.702 6.26091C76.9521 5.60294 75.9768 5.26414 74.9826 5.31631L74.9049 5.31631C73.9069 5.30455 72.9481 5.70636 72.2542 6.42717C71.5604 7.14798 71.1926 8.12415 71.2376 9.12594L71.2376 15.9411C71.2335 16.1463 71.0689 16.3117 70.8646 16.3158L69.637 16.3158C69.4311 16.3158 69.2641 16.1481 69.2641 15.9411L69.2641 4.16093C69.2641 3.92811 69.4519 3.73937 69.6836 3.73937L69.8934 3.73937C70.5394 3.70825 71.1037 4.17399 71.1987 4.81668C72.1978 3.84252 73.536 3.29906 74.9282 3.3022L74.9282 3.3022C78.3857 3.3022 80.6467 5.44902 80.6467 8.8449L80.6544 8.82929ZM24.6662 9.47724C24.6662 6.46388 22.7315 3.23194 18.4893 3.23194C16.7836 3.19881 15.1394 3.87151 13.942 5.09237C12.7445 6.31323 12.0991 7.97493 12.157 9.68801C12.0659 11.4089 12.701 13.0886 13.9063 14.3145C15.1117 15.5405 16.7756 16.1991 18.4893 16.1285C20.2583 16.1619 21.9741 15.5203 23.2909 14.333C23.3764 14.2471 23.524 14.0831 23.726 13.8411C23.8454 13.6983 23.8888 13.5065 23.8426 13.3259C23.8094 13.1886 23.7298 13.0672 23.6173 12.9824L23.0501 12.5296C22.9477 12.4436 22.8184 12.3966 22.6849 12.3969C22.5132 12.3991 22.3501 12.4726 22.2343 12.5999C22.1193 12.7436 21.9947 12.8792 21.8613 13.0058C20.9067 13.7871 19.7202 14.2266 18.4893 14.2549C16.4696 14.3436 14.6834 12.9489 14.2703 10.9605L24.5652 10.9605C24.6201 10.4731 24.6512 9.9833 24.6584 9.49285L24.6662 9.47724ZM14.2703 9.47724C14.2703 7.27577 15.5057 5.24605 18.497 5.24605C21.2475 5.24605 22.7315 6.80737 22.7315 9.47724L14.2703 9.47724ZM67.0031 9.47724C67.0031 6.46388 65.0685 3.23194 60.8262 3.23194C59.1206 3.19881 57.4764 3.87151 56.2789 5.09237C55.0815 6.31323 54.436 7.97493 54.4939 9.68801C54.4028 11.4089 55.0379 13.0886 56.2433 14.3145C57.4486 15.5405 59.1125 16.1991 60.8262 16.1285C62.5952 16.1619 64.311 15.5203 65.6279 14.333C65.7133 14.2471 65.861 14.0831 66.063 13.8411C66.1806 13.6975 66.2263 13.5077 66.1873 13.3259C66.1509 13.188 66.0687 13.0668 65.9542 12.9824L65.3948 12.5296C65.2888 12.4447 65.1574 12.398 65.0219 12.3969C64.8502 12.3991 64.6871 12.4726 64.5712 12.5999C64.4562 12.7436 64.3316 12.8792 64.1983 13.0058C63.2436 13.7871 62.0572 14.2266 60.8262 14.2549C58.8065 14.3436 57.0203 12.9489 56.6073 10.9605L66.9099 10.9605C66.9099 10.9605 66.9953 10.172 66.9953 9.49285L67.0031 9.47724ZM56.6073 9.47724C56.6073 7.27577 57.8349 5.36315 60.8262 5.36315C63.5767 5.36315 65.0685 6.8386 65.0685 9.47724L56.6073 9.47724ZM113.777 9.47724C113.777 6.46388 111.842 3.23194 107.6 3.23194C105.894 3.19881 104.25 3.87151 103.052 5.09237C101.855 6.31323 101.209 7.97493 101.267 9.68801C101.176 11.4089 101.811 13.0886 103.017 14.3145C104.222 15.5405 105.886 16.1991 107.6 16.1285C109.357 16.1708 111.066 15.5464 112.386 14.3798C112.541 14.2257 112.687 14.0614 112.821 13.888C112.945 13.7479 112.992 13.5546 112.945 13.3727C112.912 13.2354 112.832 13.114 112.72 13.0292L112.153 12.5765C112.05 12.4904 111.921 12.4434 111.788 12.4438C111.616 12.446 111.453 12.5194 111.337 12.6467C111.222 12.7904 111.097 12.9261 110.964 13.0527C110.009 13.8329 108.823 14.2723 107.592 14.3017C105.571 14.3938 103.783 12.9976 103.373 11.0073L113.668 11.0073C113.727 10.5045 113.761 9.99906 113.769 9.49285L113.777 9.47724ZM103.373 9.46162C103.373 7.26016 104.593 5.34753 107.592 5.34753C110.342 5.34753 111.834 6.82299 111.834 9.46162L103.373 9.46162ZM52.163 1.21783L52.163 0.374718C52.163 0.167767 51.9961 0 51.7901 0L50.9587 0C50.5296 0 50.1818 0.349514 50.1818 0.780662L50.1818 1.62378C50.1818 1.72316 50.2211 1.81847 50.291 1.88874C50.3609 1.95902 50.4558 1.99849 50.5547 1.99849L51.3861 1.99849C51.8152 1.99849 52.163 1.64898 52.163 1.21783Z" transform="translate(38.695496 4.6448975)" id="Shape" fill="#FFFFFF" stroke="none" />
  </g>
</svg>