<?xml version="1.0" encoding="utf-8"?>
<!-- Generator: Adobe Illustrator 25.0.1, SVG Export Plug-In . SVG Version: 6.00 Build 0)  -->
<svg version="1.1" id="Layer_1" xmlns="http://www.w3.org/2000/svg" xmlns:xlink="http://www.w3.org/1999/xlink" x="0px" y="0px"
	 viewBox="0 0 218 38" style="enable-background:new 0 0 218 38;" xml:space="preserve">
<style type="text/css">
	.st0{fill:url(#Path_6_);stroke:#FFFFFF;stroke-width:2.16;}
	.st1{fill:url(#Path_7_);}
	.st2{fill:#FFFFFF;}
	.st3{fill:url(#Path_8_);}
	.st4{fill:#97999B;}
</style>
<g id="Symbols">
	<g id="Footer" transform="translate(-98.000000, -74.000000)">
		<g id="Logo-nuevo" transform="translate(100.000000, 76.000000)">
			<g id="Group-4">
				
					<linearGradient id="Path_6_" gradientUnits="userSpaceOnUse" x1="-183.9874" y1="425.0515" x2="-183.956" y2="426.081" gradientTransform="matrix(33.826 0 0 -34 6238.9487 14486.252)">
					<stop  offset="0" style="stop-color:#009A44"/>
					<stop  offset="1" style="stop-color:#56C271"/>
				</linearGradient>
				<path id="Path" class="st0" d="M14.8,0h18.1v18.2c0,8.8-7.1,15.8-15.8,15.8H-1V15.9C-1,7.1,6.1,0,14.8,0z"/>
				
					<linearGradient id="Path_7_" gradientUnits="userSpaceOnUse" x1="-180.839" y1="394.1682" x2="-179.839" y2="394.1682" gradientTransform="matrix(20.4127 0 0 -9.3009 3695.6045 3676.8794)">
					<stop  offset="0" style="stop-color:#C5C5C5"/>
					<stop  offset="0.2" style="stop-color:#DADADA"/>
					<stop  offset="0.47" style="stop-color:#EEEEEE"/>
					<stop  offset="0.74" style="stop-color:#FBFBFB"/>
					<stop  offset="1" style="stop-color:#FFFFFF"/>
				</linearGradient>
				<path id="Path_1_" class="st1" d="M24.6,11.7c-1.3-2.2-3.7-3.4-6.7-3.4c-4.6,0.2-8.8,2.9-10.8,7.1H5.8c-0.6,0-1.1-0.3-1.4-0.8
					c-0.3-0.5-0.3-1.1,0-1.6l0,0C9.1,5.3,21.4,3,24.6,11.7z"/>
				<path id="Path_2_" class="st2" d="M24.6,11.7h3.7c-1.7-4.3-5.9-7.1-10.5-7C12.2,4.8,7.1,8,4.5,12.9C9.1,5.2,21.4,3,24.6,11.7z"
					/>
				<path id="Path_3_" class="st2" d="M7.3,22.3H3.5c1.5,4.2,5.6,7,10.5,7c5.6-0.1,10.7-3.2,13.4-8.1C23.4,27.8,11,31.3,7.3,22.3z"
					/>
				<path id="Path_4_" class="st2" d="M27.9,16.6c-0.6-0.8-1.5-1.2-2.5-1.2H5.8c-0.5,0-1-0.3-1.3-0.7s-0.4-1-0.2-1.5
					c-0.3,0.5-0.5,1-0.7,1.6c-0.3,0.9-0.2,1.9,0.3,2.7c0.6,0.8,1.5,1.2,2.5,1.2H26c0.5,0,1,0.3,1.3,0.8s0.3,1,0.1,1.5
					c0.3-0.6,0.6-1.2,0.8-1.8C28.5,18.3,28.4,17.3,27.9,16.6L27.9,16.6z"/>
				
					<linearGradient id="Path_8_" gradientUnits="userSpaceOnUse" x1="-180.7946" y1="392.9961" x2="-179.7946" y2="392.9961" gradientTransform="matrix(20.3142 0 0 -9.0553 3679.949 3581.925)">
					<stop  offset="0" style="stop-color:#FFFFFF"/>
					<stop  offset="0.26" style="stop-color:#FBFBFB"/>
					<stop  offset="0.53" style="stop-color:#EEEEEE"/>
					<stop  offset="0.8" style="stop-color:#DADADA"/>
					<stop  offset="1" style="stop-color:#C5C5C5"/>
				</linearGradient>
				<path id="Path_5_" class="st3" d="M26,18.7h-1.3c-2,4.2-6.1,7-10.8,7.1c-2.7,0.1-5.2-1.2-6.7-3.5c3.8,9,16.2,5.5,20.1-1.1l0,0
					c0.3-0.5,0.3-1.1,0-1.6C27.1,19,26.6,18.7,26,18.7L26,18.7z"/>
			</g>
			<path id="Shape" class="st4" d="M108,24.7c0,0.2-0.2,0.4-0.4,0.4h-1.5c-0.2,0-0.4-0.2-0.4-0.4V10.3c0-0.1,0-0.2,0.1-0.3
				c0.1-0.1,0.2-0.1,0.3-0.1h1.5c0.1,0,0.2,0,0.3,0.1s0.1,0.2,0.1,0.3L108,24.7z M102.8,10.1h-1.3c-0.3,0-0.5,0.1-0.7,0.3l-4.5,11
				l-4.5-11c-0.1-0.3-0.4-0.4-0.7-0.4h-1.3c-0.1,0-0.3,0.1-0.4,0.2c-0.2,0.2-0.2,0.4-0.1,0.6L95,24.6c0.1,0.3,0.4,0.5,0.7,0.5h1.3
				c0.3,0,0.6-0.3,0.7-0.6l5.7-13.7c0.1-0.2,0.1-0.5-0.1-0.6C103.1,10.1,103,10.1,102.8,10.1L102.8,10.1z M87.5,11.2l-0.6,1.1
				c0,0.1-0.1,0.1-0.1,0.1c-0.2,0.2-0.6,0.3-0.8,0.1c-0.1-0.1-0.2-0.1-0.3-0.2c-1.3-0.5-2.7-0.4-3.9,0.4c-1.2,0.8-1.8,2.1-1.8,3.5
				v8.6c0,0.1,0,0.2-0.1,0.3c-0.1,0.1-0.2,0.1-0.3,0.1H78c-0.3,0-0.5-0.2-0.5-0.5V10.5c0-0.3,0.2-0.5,0.5-0.4h0.3
				c0.8,0,1.4,0.5,1.6,1.3c1.1-1.1,2.6-1.7,4.1-1.7h0.2c0.8,0,1.6,0.2,2.4,0.5c0.1,0.1,0.4,0.2,0.8,0.4
				C87.5,10.7,87.6,10.9,87.5,11.2L87.5,11.2z M52.4,16l-0.5-0.1c-1.6-0.3-3.6-0.6-3.6-2c0-0.4,0.1-0.8,0.4-1.1c0.9-0.7,2-1,3.2-0.9
				h0.1c1.2-0.1,2.4,0.2,3.4,0.9c0.1,0,0.3,0.2,0.5,0.4c0.3,0.2,0.7,0.2,0.9-0.1l0.6-0.6c0.2-0.2,0.2-0.4,0.2-0.6
				c0-0.2-0.1-0.3-0.3-0.4c-0.3-0.3-0.6-0.4-0.7-0.5c-1.4-0.9-3-1.4-4.7-1.3h-0.1C50,9.4,48.3,10,47,11.2c-0.7,0.7-1.1,1.8-1.1,2.8
				c0,3.3,3.3,3.9,5.9,4.3c2.8,0.4,4.1,0.9,4.1,2.2c-0.1,1.9-2.7,2.2-3.8,2.2c-1.1,0-2.2-0.3-3.1-0.8c-0.6-0.3-1.1-0.7-1.5-1.3
				c-0.1-0.2-0.3-0.3-0.6-0.3c-0.2,0-0.3,0.1-0.5,0.2l-0.7,0.7c-0.3,0.2-0.3,0.6-0.1,0.9c0.5,0.6,1.1,1.2,1.8,1.6
				c1.4,0.9,3,1.3,4.7,1.3c5.7,0,6.2-3.4,6.2-4.4C58.4,17,54.8,16.4,52.4,16z M195,22.7c1.6-1.2,2.7-3,3-5c0.3-2-0.3-4-1.5-5.6
				l1.1-1.3c0.1-0.2,0.1-0.4,0-0.6c-0.5-0.7-1.3-0.8-2-0.5c-0.2,0.1-0.3,0.2-0.4,0.3l-0.4,0.4c-1.2-0.7-2.5-1.1-3.9-1.1
				c-4.2,0-7.1,3-7.1,7.4c-0.1,1.9,0.6,3.8,2,5.2s3.2,2.1,5.1,2.1c2.2,0,4.7,0.9,4.7,3.7c0,3.4-3.6,3.7-4.7,3.7
				c-2.1,0-4.4-0.8-4.7-3.2c0,0,0,0,0-0.4c0-0.2-0.2-0.4-0.4-0.4h-1.5c-0.2,0-0.4,0.2-0.4,0.4v0.1c0,0.1,0,0.3,0,0.4
				c0.3,3.3,3.1,5.4,7,5.4c4.4,0,7.1-2.4,7.1-6.1C198.2,25.7,197,23.7,195,22.7L195,22.7z M191,21.7c-1.3,0-2.5-0.5-3.4-1.4
				s-1.3-2.2-1.3-3.4c0-2.4,1.2-4.9,4.7-4.9c2.8,0,4.7,1.9,4.7,4.9C195.7,19.5,193.6,21.6,191,21.7L191,21.7z M214.6,10.1H214
				c-0.4,0-0.8,0.2-1.1,0.4c-0.3,0.3-0.5,0.7-0.5,1.1l0,0c-1.3-1.4-3.2-2.1-5.1-2.1c-2,0-4,0.8-5.4,2.2s-2.2,3.4-2.1,5.5
				c-0.1,2,0.7,4,2.1,5.5c1.4,1.5,3.4,2.3,5.4,2.3c1.9,0,3.8-0.8,5.1-2.2v1.9c0,0.2,0.2,0.4,0.4,0.4h1.7c0.2,0,0.4-0.2,0.4-0.4V10.5
				C215,10.3,214.8,10.1,214.6,10.1L214.6,10.1z M207.4,22.6c-1.4,0-2.8-0.5-3.7-1.5c-1-1-1.5-2.4-1.4-3.8c0-2.9,2.3-5.3,5.2-5.3
				s5.2,2.4,5.2,5.3c0.1,1.4-0.5,2.8-1.5,3.9S208.8,22.7,207.4,22.6L207.4,22.6z M153.7,22.6c-0.1-0.3-0.4-0.4-0.6-0.5
				c-0.1,0-0.2,0-0.3,0.1l-0.5,0.2c-0.4,0.2-0.8,0.2-1.2,0.3c-1.7,0-2-0.9-2-2.7v-7.8h4.3c0.2,0,0.4-0.2,0.4-0.4v-1.2
				c0-0.2-0.2-0.4-0.4-0.4h-4.3V6c0-0.2-0.2-0.4-0.4-0.4h-0.5c-0.8,0-1.4,0.6-1.4,1.4v3.1H144c-0.2,0-0.4,0.2-0.4,0.4v1.2
				c0,0.2,0.2,0.4,0.4,0.4h2.7V20c0,3.4,1.4,5,4.4,5c0.7,0,1.3-0.1,1.9-0.4c0.2-0.1,0.5-0.2,0.9-0.4c0.2-0.1,0.3-0.4,0.2-0.6
				L153.7,22.6z M167,11l-0.6,1.1c-0.1,0.2-0.4,0.4-0.7,0.4c-0.1,0-0.2,0-0.3-0.1c-0.1-0.1-0.2-0.1-0.4-0.2
				c-1.3-0.5-2.7-0.4-3.9,0.4s-1.9,2.1-1.9,3.5v8.6c0,0.3-0.2,0.5-0.4,0.5h-1.5c-0.2,0-0.4-0.2-0.4-0.5V10.5c0-0.2,0.2-0.4,0.4-0.4
				h0.4c0.8,0,1.4,0.5,1.6,1.3c1.1-1.1,2.6-1.7,4.1-1.7h0.2c0.8,0,1.6,0.2,2.4,0.5c0.3,0.1,0.6,0.3,0.9,0.5
				C167.1,10.7,167.1,10.9,167,11L167,11z M142.2,16.2v8.5c0,0.1,0,0.2-0.1,0.3c-0.1,0.1-0.2,0.1-0.3,0.1h-1.5
				c-0.2,0-0.4-0.2-0.4-0.4v-8.4c0.1-1.2-0.4-2.3-1.2-3.2c-0.9-0.8-2.1-1.2-3.3-1.1h-0.1c-1.2,0-2.3,0.5-3.2,1.3s-1.3,2-1.2,3.2v8.2
				c0,0.2-0.2,0.4-0.4,0.4H129c-0.2,0-0.4-0.2-0.4-0.4V10.6c0-0.3,0.2-0.5,0.5-0.5h0.3c0.8,0,1.5,0.5,1.6,1.3
				c1.2-1.2,2.8-1.8,4.5-1.8l0,0C139.5,9.5,142.2,12.1,142.2,16.2L142.2,16.2z M75,17c0-3.6-2.3-7.5-7.4-7.5c-2,0-4,0.8-5.5,2.2
				c-1.4,1.5-2.2,3.5-2.1,5.5c-0.1,2.1,0.7,4.1,2.1,5.6c1.4,1.5,3.4,2.3,5.5,2.2c2.1,0,4.2-0.7,5.8-2.2c0.1-0.1,0.3-0.3,0.5-0.6
				c0.1-0.2,0.2-0.4,0.1-0.6c0-0.2-0.1-0.3-0.3-0.4l-0.7-0.5c-0.1-0.1-0.3-0.2-0.4-0.2c-0.2,0-0.4,0.1-0.5,0.2
				c-0.1,0.2-0.3,0.3-0.4,0.5c-1.1,0.9-2.6,1.5-4,1.5c-2.4,0.1-4.6-1.6-5.1-4h12.4C75,18.2,75,17.6,75,17L75,17z M62.6,17
				c0-2.6,1.5-5.1,5.1-5.1c3.3,0,5.1,1.9,5.1,5.1H62.6z M125.8,17c0-3.6-2.3-7.5-7.4-7.5c-2,0-4,0.8-5.5,2.2
				c-1.4,1.5-2.2,3.5-2.1,5.5c-0.1,2.1,0.7,4.1,2.1,5.6c1.4,1.5,3.4,2.3,5.5,2.2c2.1,0,4.2-0.7,5.8-2.2c0.1-0.1,0.3-0.3,0.5-0.6
				c0.1-0.2,0.2-0.4,0.1-0.6c0-0.2-0.1-0.3-0.3-0.4l-0.7-0.5c-0.1-0.1-0.3-0.2-0.4-0.2c-0.2,0-0.4,0.1-0.5,0.2
				c-0.1,0.2-0.3,0.3-0.4,0.5c-1.1,0.9-2.6,1.5-4,1.5c-2.4,0.1-4.6-1.6-5.1-4h12.4C125.7,18.7,125.8,17.8,125.8,17L125.8,17z
				 M113.4,17c0-2.6,1.5-4.9,5.1-4.9c3.3,0,5.1,1.8,5.1,4.9H113.4z M182,17c0-3.6-2.3-7.5-7.4-7.5c-2,0-4,0.8-5.5,2.2
				s-2.2,3.5-2.1,5.5c-0.1,2.1,0.7,4.1,2.1,5.6s3.4,2.3,5.5,2.2c2.1,0.1,4.2-0.7,5.7-2.1c0.2-0.2,0.4-0.4,0.5-0.6
				c0.1-0.2,0.2-0.4,0.1-0.6c0-0.2-0.1-0.3-0.3-0.4l-0.7-0.5c-0.1-0.1-0.3-0.2-0.4-0.2c-0.2,0-0.4,0.1-0.5,0.2
				c-0.1,0.2-0.3,0.3-0.4,0.5c-1.1,0.9-2.6,1.5-4,1.5c-2.4,0.1-4.6-1.6-5.1-4h12.4C181.9,18.2,181.9,17.6,182,17L182,17z
				 M169.5,16.9c0-2.6,1.5-4.9,5.1-4.9c3.3,0,5.1,1.8,5.1,4.9H169.5z M108,7V6c0-0.2-0.2-0.4-0.4-0.4h-1c-0.5,0-0.9,0.4-0.9,0.9v1
				c0,0.1,0,0.2,0.1,0.3c0.1,0.1,0.2,0.1,0.3,0.1h1C107.6,8,108,7.6,108,7z"/>
		</g>
	</g>
</g>
</svg>
